<svg xmlns="http://www.w3.org/2000/svg" width="929" height="1024"><path d="M394 29.054c-60.225.361-137.466.721-171.647.801L160.207 30l3.825 11.75c3.656 11.228 6.958 26.638 6.965 32.5L171 77l-69.75.006c-45.586.003-71.059.369-73.527 1.054-4.459 1.238-10.17 5.983-12.445 10.338-1.015 1.943-1.585 5.344-1.524 9.102.077 4.79 42.377 454.799 46.227 491.79 1.443 13.862 5.223 20.217 14.519 24.407 3.789 1.708 12.105 1.819 157.75 2.097l153.75.295.011 23.205c.026 56.438.445 73.348 1.861 75.053 1.249 1.504 6.821 1.653 61.75 1.653 59.516 0 60.378.028 60.378 1.981 0 1.089 5.063 8.003 11.25 15.363 6.188 7.361 50.393 59.816 98.234 116.566 83.94 99.572 87.093 103.172 90.119 102.886 2.803-.265 9.763-8.059 65.517-73.364 34.309-40.187 78.805-92.275 98.88-115.752 20.075-23.477 36.92-43.795 37.432-45.152.72-1.905.516-2.928-.895-4.488-1.776-1.961-3.122-2.027-46.433-2.28l-44.604-.26-.257-72.905c-.182-51.835-.579-73.295-1.372-74.25-.912-1.099-12.048-1.345-60.885-1.345h-59.769l-.621-2.25c-.341-1.237-6.228-8.775-13.083-16.75s-12.474-15.217-12.488-16.093c-.014-.877.9-4.252 2.03-7.5 13.032-37.463 37.264-128.181 55.464-207.637l5.664-24.731-1.841-3.705c-1.013-2.038-3.112-4.634-4.664-5.769-2.748-2.011-4.118-2.072-52.25-2.351-27.186-.157-49.428-.569-49.428-.916 0-.347 2.419-5.844 5.376-12.214 24.147-52.032 37.753-103.694 42.557-161.584 1.524-18.363 2.44-54.962 1.62-64.75L674.82 28l-85.66.2c-47.113.109-134.935.494-195.16.854M182.484 47.25c.186 2.337.826 6.95 1.421 10.25 1.57 8.694 1.339 39.088-.403 53.161-4.301 34.74-14.046 67.158-39.48 131.339-21.437 54.093-29.102 75.589-36.907 103.5C96.714 382.695 92.26 419.562 93.282 460c.715 28.319 2.133 33.634 3.046 11.424.624-15.184 2.526-35.171 4.698-49.361 1.904-12.447 6.222-34.565 6.892-35.308.37-.41 10.742-.3 23.05.244 12.308.543 22.553.813 22.767.6.54-.541 2.552-13.305 8.775-55.677 7.474-50.892 7.267-49.853 10.554-53.139l2.782-2.783h432.297l5.833-12.287c30.684-64.627 44.278-121.981 45.739-192.963l.57-27.75H182.146l.338 4.25m53.183 43.417c-.367.366-.667 3.966-.667 8V106h365V90H418.167c-100.009 0-182.134.3-182.5.667M61.784 94.971c-26.017.463-29.924.738-31.39 2.205-1.505 1.507-1.561 2.772-.548 12.5.62 5.953 1.794 17.799 2.609 26.324 3.775 39.483 4.743 49.409 6.044 62 .767 7.425 1.693 17.679 2.057 22.787l.662 9.288 8.598-.288 8.598-.287-.277-5.5c-.152-3.025-.662-7.3-1.132-9.5-.471-2.2-1.13-8.95-1.466-15-.335-6.05-1.029-13.475-1.541-16.5-.513-3.025-1.191-10-1.508-15.5-.317-5.5-.992-12.475-1.5-15.5-.508-3.025-1.183-10-1.5-15.5-.317-5.5-1.039-12.655-1.604-15.899-1.133-6.499-.69-9.654 1.687-12.031 1.391-1.391 8.319-1.57 60.882-1.57h59.312l.603-2.25c.331-1.237.609-4.162.616-6.5L171 94l-39.75.221c-21.863.121-53.122.459-69.466.75M234 128.997V137h306.084l-.292-7.75-.292-7.75-152.75-.253-152.75-.253v8.003M231 160v8h376v-16H231v8m-12 31v8h370v-16H219v8m-12 31v8h362v-16H207v8M43.297 249.25c.303 2.887 1.359 13.923 2.346 24.523 1.539 16.53 2.013 19.177 3.326 18.596.842-.372 4.569-.883 8.281-1.135 6.481-.441 6.75-.563 6.75-3.054 0-2.198-1.301-16.23-3.61-38.93l-.534-5.25h-17.11l.551 5.25M190 253v8h289v-16H190v8m-4 41.51c0 .28-1.8 12.706-4 27.613s-4 27.523-4 28.034c0 .516 3.235.8 7.25.637l7.25-.294 3.18-20c1.749-11 3.211-20.337 3.25-20.75.07-.748 497.07-1.104 497.07-.355 0 .217-2.025 8.789-4.5 19.05-2.475 10.261-4.5 18.859-4.5 19.106 0 .247 3.304.449 7.342.449h7.342l6.658-26.429c3.662-14.536 6.658-26.686 6.658-27 0-.314-119.025-.571-264.5-.571s-264.5.229-264.5.51M49.58 314.49c.794 9.415.959 9.827 3.415 8.513 1.03-.552 4.668-1.003 8.083-1.003h6.209l-.668-7.191c-.368-3.956-.77-7.283-.894-7.395-.124-.111-3.959-.367-8.523-.568l-8.298-.365.676 8.009m3.001 31c.371 4.406.73 8.041.797 8.078.067.038 3.888-.125 8.49-.361l8.368-.43-.702-7.138c-.387-3.927-.778-7.204-.869-7.283-.091-.079-3.899-.309-8.463-.51l-8.298-.365.677 8.009m350.518 102.827l-90.4 107.183 42.526.261 42.527.26.745 74.49.745 74.489 17.629-.001c9.696-.001 39.567-.299 66.379-.663l48.75-.663V694H410l-.25-32.75c-.137-18.013-.25-40.4-.25-49.75 0-9.35-.113-28.362-.25-42.25L409 544h-53.034l2.517-4.967c2.11-4.163 2.517-6.359 2.517-13.579v-8.612l31.812-38.171C466.772 389.926 493.241 358.5 494.03 358.5c.461 0 14.628 15.975 31.482 35.5 16.855 19.525 31.549 36.4 32.654 37.5l2.009 2-.338-8.024-.337-8.025-32.5-38.169c-17.875-20.993-32.725-38.164-33-38.158-.275.006-41.18 48.243-90.901 107.193M55 369.031c0 .533.675.969 1.5.969s1.5-.177 1.5-.393c0-.216-.675-.652-1.5-.969-.825-.316-1.5-.139-1.5.393m498.537 383.932c13.494 15.93 25.016 29.261 25.606 29.625 1.263.781.647-2.665-2.379-13.303-1.871-6.577-3.068-8.435-13.539-21L551.738 734.5l6.131-.298c3.372-.163 6.131-.483 6.131-.709 0-.226-1.234-2.455-2.743-4.952L558.515 724h-29.512l24.534 28.963" fill="undefined" fill-rule="evenodd"/></svg>